<?xml version="1.0" encoding="UTF-8"?>
<svg id="Layer_2" data-name="Layer 2" xmlns="http://www.w3.org/2000/svg" viewBox="0 0 93.46 57.01">
  <defs>
    <style>
      .cls-1 {
        fill: #b5e3ee;
      }

      .cls-1, .cls-2 {
        stroke-width: 0px;
      }

      .cls-2 {
        fill: #25408f;
      }
    </style>
  </defs>
  <g id="Layer_1-2" data-name="Layer 1">
    <polygon class="cls-2" points="3.86 0 3.86 3.6 0 3.6 0 35.28 3.86 35.28 3.86 38.88 59.27 38.88 59.27 42.48 63.16 42.48 63.16 46.11 67.06 46.11 67.06 49.74 70.95 49.74 70.95 53.37 74.85 53.37 74.85 57.01 81.84 57.01 81.84 38.94 89.56 38.94 89.56 35.31 93.46 35.31 93.46 3.64 89.57 3.64 89.57 0 3.86 0"/>
    <polygon class="cls-1" points="86.75 32.41 86.75 36.04 79.02 36.04 79.02 54.11 77.66 54.11 77.66 50.48 73.77 50.48 73.77 46.84 69.87 46.84 69.87 43.21 65.98 43.21 65.98 39.58 62.09 39.58 62.09 35.98 6.68 35.98 6.68 32.38 2.82 32.38 2.82 6.5 6.68 6.5 6.68 2.9 86.75 2.9 86.75 6.54 90.64 6.54 90.64 32.41 86.75 32.41"/>
  </g>
</svg>