<?xml version="1.0" encoding="UTF-8"?>
<svg id="Layer_2" data-name="Layer 2" xmlns="http://www.w3.org/2000/svg" viewBox="0 0 70.87 47">
  <defs>
    <style>
      .cls-1 {
        fill: #25408f;
      }

      .cls-1, .cls-2 {
        stroke-width: 0px;
      }

      .cls-2 {
        fill: #ccdc43;
      }
    </style>
  </defs>
  <g id="Layer_1-2" data-name="Layer 1">
    <polygon class="cls-1" points="2.95 0 2.95 3 0 3 0 29.11 2.96 29.11 2.96 32.11 8.81 32.11 8.81 47 14.11 47 14.11 44.01 17.07 44.01 17.07 41.01 20.02 41.01 20.02 38.02 22.97 38.02 22.97 35.02 25.93 35.02 25.93 32.06 67.94 32.06 67.94 29.08 70.87 29.08 70.87 2.97 67.94 2.97 67.94 0 2.95 0"/>
    <polygon class="cls-2" points="5.09 26.72 5.09 29.72 10.95 29.72 10.95 44.61 11.98 44.61 11.98 41.62 14.93 41.62 14.93 38.62 17.89 38.62 17.89 35.63 20.84 35.63 20.84 32.63 23.79 32.63 23.79 29.66 65.8 29.66 65.8 26.69 68.73 26.69 68.73 5.36 65.8 5.36 65.8 2.39 5.09 2.39 5.09 5.39 2.13 5.39 2.13 26.72 5.09 26.72"/>
  </g>
</svg>