<?xml version="1.0" encoding="UTF-8"?>
<svg id="Layer_2" data-name="Layer 2" xmlns="http://www.w3.org/2000/svg" viewBox="0 0 90 63.19">
  <defs>
    <style>
      .cls-1 {
        fill: #ccdc43;
      }

      .cls-1, .cls-2 {
        stroke-width: 0px;
      }

      .cls-2 {
        fill: #044f9d;
      }
    </style>
  </defs>
  <g id="Layer_1-2" data-name="Layer 1">
    <polygon class="cls-2" points="4.96 0 4.96 4.62 0 4.62 0 35.29 4.96 35.29 4.96 39.92 46.1 39.92 46.1 44.54 51.1 44.54 51.1 49.2 56.1 49.2 56.1 53.87 61.1 53.87 61.1 58.53 66.1 58.53 66.1 63.19 75.08 63.19 75.08 40 84.99 40 84.99 35.33 90 35.33 90 4.67 85 4.67 85 0 4.96 0"/>
    <polygon class="cls-1" points="81.38 31.61 81.38 36.28 71.46 36.28 71.46 59.47 69.72 59.47 69.72 54.81 64.71 54.81 64.71 50.14 59.71 50.14 59.71 45.48 54.71 45.48 54.71 40.82 49.71 40.82 49.71 36.19 8.57 36.19 8.57 31.57 3.62 31.57 3.62 8.35 8.58 8.35 8.58 3.72 81.38 3.72 81.38 8.4 86.38 8.4 86.38 31.61 81.38 31.61"/>
  </g>
</svg>