<?xml version="1.0" encoding="UTF-8"?>
<svg id="Layer_2" data-name="Layer 2" xmlns="http://www.w3.org/2000/svg" viewBox="0 0 48.01 63.3">
  <defs>
    <style>
      .cls-1 {
        fill: #f15833;
        stroke-width: 0px;
      }
    </style>
  </defs>
  <g id="Layer_1-2" data-name="Layer 1">
    <path class="cls-1" d="M34.41,5.4l1.85,7.41,4.03-1.01-1.85-7.41-4.03,1ZM25.43,3.71l.92,3.71,8.06-2.01-.92-3.71-8.06,2.01ZM21.32,55.89l20.15-5.02.93,3.73-20.15,5-.92-3.71ZM19.48,48.49l20.14-5.02.92,3.69-20.15,5.02-.92-3.69ZM12.42,3.01l.92,3.71-8.06,2.01.92,3.71-4.03,1,1.85,7.41-4.03,1,3.7,14.83,4.03-1,1.85,7.41,4.03-1,4.62,18.51,4.03-1,.92,3.71,20.15-5.01-.92-3.71,4.03-1-4.62-18.53,4.03-1-1.85-7.41,4.03-1-3.7-14.83-4.03,1,3.7,14.83-4.03,1,1.85,7.41-4.03,1,.92,3.71-8.06,1.99-5.54-22.22,4.03-1-.93-3.72-12.08,3.03.92,3.71,4.03-1.01,5.54,22.22-8.06,2.02-.92-3.71-4.03,1-1.85-7.41-4.03,1-3.7-14.83,4.03-1.01-1.85-7.41,8.06-2.01-.93-3.71,12.09-3.01-.92-3.71-12.08,3.01Z"/>
  </g>
</svg>