<?xml version="1.0" encoding="UTF-8"?>
<svg id="Layer_2" data-name="Layer 2" xmlns="http://www.w3.org/2000/svg" viewBox="0 0 73.99 50.57">
  <defs>
    <style>
      .cls-1 {
        fill: #fff400;
      }

      .cls-1, .cls-2, .cls-3 {
        stroke-width: 0px;
      }

      .cls-2 {
        fill: #044f9d;
      }

      .cls-3 {
        fill: #fff;
      }
    </style>
  </defs>
  <g id="Layer_1-2" data-name="Layer 1">
    <rect class="cls-3" width="73.99" height="50.57"/>
    <rect class="cls-3" x="1.87" y="1.87" width="70.26" height="46.84"/>
    <rect class="cls-2" x="1.87" y="1.87" width="70.26" height="46.84"/>
    <path class="cls-1" d="M36.08,10.56l-1.48-1.08h1.83l.57-1.76.57,1.76h1.83l-1.48,1.08.57,1.77-1.48-1.09-1.48,1.09.56-1.77ZM37.91,41.09l.57,1.76-1.48-1.08-1.48,1.08.56-1.76-1.48-1.08h1.83l.57-1.77.57,1.77h1.83l-1.48,1.08ZM21.83,26.46l-1.48,1.09.57-1.76-1.48-1.05h1.83l.57-1.76.57,1.76h1.84l-1.49,1.09.57,1.76-1.48-1.09v-.04ZM30.33,12.6l.56,1.76-1.48-1.08-1.48,1.08.57-1.76-1.48-1.08h1.83l.56-1.76.57,1.76h1.83l-1.48,1.07ZM23.33,17.11l.57-1.76.57,1.76h1.79l-1.48,1.09.57,1.76-1.49-1.09-1.49,1.09.57-1.76-1.48-1.09h1.89ZM21.46,32.37h1.87l.57-1.76.57,1.76h1.79l-1.48,1.09.57,1.76-1.49-1.08-1.49,1.08.57-1.76-1.48-1.09h.02ZM28.5,39.04l-1.48-1.07h1.83l.56-1.76.57,1.76h1.83l-1.48,1.07.56,1.76-1.48-1.08-1.48,1.08.57-1.76ZM53.08,25.83l.56,1.76-1.48-1.09-1.5,1.09.57-1.76-1.49-1.09h1.9l.56-1.76.57,1.76h1.79l-1.48,1.09ZM43.66,12.6l-1.48-1.07h1.84l.57-1.76.56,1.76h1.84l-1.48,1.07.56,1.76-1.48-1.08-1.48,1.08.57-1.76h0ZM49.51,17.1l.58-1.76.57,1.76h1.83l-1.44,1.1.57,1.76-1.48-1.09-1.49,1.09.57-1.76-1.47-1.09h1.78ZM50.66,32.37h1.83l-1.44,1.09.57,1.76-1.48-1.08-1.49,1.08.57-1.76-1.47-1.09h1.83l.58-1.76.57,1.76h-.05ZM46.98,37.97l-1.48,1.07.56,1.76-1.48-1.08-1.48,1.08.57-1.76-1.48-1.07h1.84l.57-1.76.56,1.76h1.84Z"/>
  </g>
</svg>