<?xml version="1.0" encoding="UTF-8"?>
<svg id="Layer_2" data-name="Layer 2" xmlns="http://www.w3.org/2000/svg" viewBox="0 0 34.79 50.1">
  <defs>
    <style>
      .cls-1 {
        fill: #ccdc43;
      }

      .cls-1, .cls-2, .cls-3 {
        stroke-width: 0px;
      }

      .cls-2 {
        fill: #044f9d;
      }

      .cls-3 {
        fill: #fff;
      }
    </style>
  </defs>
  <g id="Layer_1-2" data-name="Layer 1">
    <polygon class="cls-1" points="19.85 0 18.99 1.85 17.14 .99 9.36 17.66 7.99 17.02 8.85 15.17 2.81 12.35 0 18.39 1.85 19.25 .99 21.11 2.84 21.97 1.11 25.68 2.97 26.54 1.24 30.25 3.09 31.11 1.36 34.82 3.22 35.68 .62 41.24 19.63 50.1 22.22 44.54 24.07 45.41 26.67 39.85 28.52 40.71 34.79 27.27 32.94 26.4 33.8 24.55 31.95 23.68 32.81 21.83 29.11 20.1 29.97 18.25 24.41 15.66 25.28 13.81 21.57 12.08 25.03 4.67 23.17 3.8 24.04 1.95 19.85 0"/>
    <polygon class="cls-3" points="19.12 2.2 17.27 1.34 9.49 18.01 7.64 17.15 8.5 15.3 2.94 12.71 2.08 14.56 1.65 15.49 .35 18.27 2.2 19.13 1.34 20.98 3.19 21.85 1.46 25.55 3.32 26.41 1.59 30.12 3.44 30.98 1.71 34.69 3.57 35.55 1.84 39.26 .97 41.11 17.65 48.89 19.5 49.75 22.09 44.19 23.95 45.06 26.54 39.5 28.39 40.36 34.44 27.39 32.59 26.53 33.45 24.68 31.6 23.81 32.46 21.96 28.76 20.23 29.62 18.38 24.06 15.79 24.93 13.94 21.22 12.21 24.68 4.8 22.82 3.93 23.69 2.08 19.98 .35 19.12 2.2"/>
    <rect class="cls-2" x=".48" y="11.6" width="25.06" height="2.57" transform="translate(-4.17 19.23) rotate(-65)"/>
    <rect class="cls-2" x=".74" y="11.87" width="24.53" height="2.04" transform="translate(-4.17 19.23) rotate(-65)"/>
    <rect class="cls-2" x="20.12" y="-.17" width="2.57" height="4.62" transform="translate(10.42 20.63) rotate(-65)"/>
    <rect class="cls-2" x="20.38" y=".1" width="2.04" height="4.09" transform="translate(10.42 20.63) rotate(-65)"/>
    <rect class="cls-2" x="10.4" y="11.41" width="18.93" height="2.57" transform="translate(-.04 25.33) rotate(-65)"/>
    <rect class="cls-2" x="10.66" y="11.68" width="18.4" height="2.04" transform="translate(-.04 25.34) rotate(-65)"/>
    <rect class="cls-2" x="21.36" y="11.69" width="2.57" height="4.62" transform="translate(.39 28.6) rotate(-65)"/>
    <rect class="cls-2" x="21.62" y="11.95" width="2.04" height="4.09" transform="translate(.39 28.6) rotate(-65)"/>
    <rect class="cls-2" x="19.5" y="19.57" width="6.66" height="2.57" transform="translate(-5.72 32.73) rotate(-65)"/>
    <rect class="cls-2" x="19.76" y="19.83" width="6.13" height="2.04" transform="translate(-5.72 32.73) rotate(-65)"/>
    <rect class="cls-2" x="25.12" y="14.68" width="2.57" height="6.66" transform="translate(-1.07 34.33) rotate(-65)"/>
    <rect class="cls-2" x="25.39" y="14.94" width="2.04" height="6.13" transform="translate(-1.07 34.33) rotate(-65)"/>
    <rect class="cls-2" x="24.2" y="24.01" width="6.66" height="2.57" transform="translate(-7.03 39.55) rotate(-65)"/>
    <rect class="cls-2" x="24.46" y="24.27" width="6.13" height="2.04" transform="translate(-7.03 39.55) rotate(-65)"/>
    <rect class="cls-2" x="28.89" y="19.71" width="2.57" height="4.62" transform="translate(-2.54 40.06) rotate(-65)"/>
    <rect class="cls-2" x="29.16" y="19.98" width="2.04" height="4.09" transform="translate(-2.53 40.07) rotate(-65)"/>
    <rect class="cls-2" x="30.81" y="23.89" width="2.57" height="2.57" transform="translate(-4.28 43.62) rotate(-65)"/>
    <rect class="cls-2" x="31.07" y="24.15" width="2.04" height="2.04" transform="translate(-4.28 43.62) rotate(-65)"/>
    <rect class="cls-2" x="23.07" y="32.16" width="14.84" height="2.57" transform="translate(-12.71 46.95) rotate(-65.01)"/>
    <rect class="cls-2" x="23.33" y="32.42" width="14.31" height="2.04" transform="translate(-12.7 46.96) rotate(-65.03)"/>
    <rect class="cls-2" x="20.99" y="40.56" width="6.66" height="2.57" transform="translate(-23.88 46.2) rotate(-65)"/>
    <rect class="cls-2" x="21.25" y="40.82" width="6.13" height="2.04" transform="translate(-23.89 46.2) rotate(-65)"/>
    <rect class="cls-2" x="16.54" y="45.25" width="6.66" height="2.57" transform="translate(-30.71 44.89) rotate(-65.01)"/>
    <rect class="cls-2" x="16.81" y="45.52" width="6.13" height="2.04" transform="translate(-30.71 44.88) rotate(-65)"/>
    <rect class="cls-2" x="8.46" y="34.61" width="2.57" height="18.93" transform="translate(-34.32 34.28) rotate(-65)"/>
    <rect class="cls-2" x="8.72" y="34.87" width="2.04" height="18.4" transform="translate(-34.32 34.28) rotate(-65)"/>
    <rect class="cls-2" x="6.85" y="17.22" width="2.57" height="2.57" transform="translate(-12.08 18.06) rotate(-65)"/>
    <rect class="cls-2" x="7.11" y="17.49" width="2.04" height="2.04" transform="translate(-12.08 18.06) rotate(-65)"/>
    <rect class="cls-2" x="4" y="11.6" width="2.57" height="6.66" transform="translate(-10.48 13.41) rotate(-65)"/>
    <rect class="cls-2" x="4.27" y="11.86" width="2.04" height="6.13" transform="translate(-10.47 13.41) rotate(-65)"/>
    <rect class="cls-2" x="-.17" y="15.56" width="4.62" height="2.57" transform="translate(-14.03 11.67) rotate(-65.02)"/>
    <rect class="cls-2" x=".1" y="15.82" width="4.09" height="2.04" transform="translate(-14.03 11.66) rotate(-64.99)"/>
    <rect class="cls-2" x="1.41" y="19.2" width="2.57" height="2.57" transform="translate(-17.01 14.27) rotate(-65)"/>
    <rect class="cls-2" x="1.68" y="19.46" width="2.04" height="2.04" transform="translate(-17.01 14.27) rotate(-65)"/>
    <rect class="cls-2" x=".95" y="22.84" width="4.62" height="2.57" transform="translate(-19.99 16.88) rotate(-65)"/>
    <rect class="cls-2" x="1.21" y="23.11" width="4.09" height="2.04" transform="translate(-19.99 16.88) rotate(-65)"/>
    <rect class="cls-2" x="1.07" y="27.41" width="4.62" height="2.57" transform="translate(-24.06 19.63) rotate(-65)"/>
    <rect class="cls-2" x="1.34" y="27.68" width="4.09" height="2.04" transform="translate(-24.06 19.63) rotate(-65)"/>
    <rect class="cls-2" x="1.2" y="31.98" width="4.62" height="2.57" transform="translate(-28.13 22.38) rotate(-65)"/>
    <rect class="cls-2" x="1.46" y="32.25" width="4.09" height="2.04" transform="translate(-28.13 22.39) rotate(-65)"/>
    <rect class="cls-2" x="1.32" y="36.55" width="4.62" height="2.57" transform="translate(-32.2 25.14) rotate(-65)"/>
    <rect class="cls-2" x="1.59" y="36.82" width="4.09" height="2.04" transform="translate(-32.2 25.14) rotate(-65)"/>
  </g>
</svg>