<?xml version="1.0" encoding="UTF-8"?>
<svg id="Layer_2" xmlns="http://www.w3.org/2000/svg" xmlns:xlink="http://www.w3.org/1999/xlink" viewBox="0 0 611.12 513.18">
  <defs>
    <style>
      .cls-1 {
        opacity: .3;
      }

      .cls-2 {
        fill: none;
      }

      .cls-3 {
        clip-path: url(#clippath-1);
      }

      .cls-4 {
        fill: #76c9dd;
      }

      .cls-5 {
        clip-path: url(#clippath-2);
      }

      .cls-6 {
        clip-path: url(#clippath);
      }
    </style>
    <clipPath id="clippath">
      <rect class="cls-2" width="611.12" height="513.18"/>
    </clipPath>
    <clipPath id="clippath-1">
      <rect class="cls-2" width="611.12" height="513.18"/>
    </clipPath>
    <clipPath id="clippath-2">
      <rect class="cls-2" x="-6" y="-5.3" width="623.13" height="518.83"/>
    </clipPath>
  </defs>
  <g id="Layer_1-2" data-name="Layer_1">
    <g class="cls-6">
      <g class="cls-3">
        <g class="cls-1">
          <g class="cls-5">
            <path class="cls-4" d="M173.73,253.86c14.41-5.06-13.16-28.07-40.35-50.13-4.65,5.82-9.44,11.82-14.37,18,23.52,19.87,45.09,35.51,54.72,32.13"/>
            <path class="cls-4" d="M56.15,406.47c9.41,12.26,18.03,70.85,98.28,84.17,20.1,3.33,42.27,2.39,65.51-1.32-40.04-26.77-125.82-88.19-171.16-123.57-.47,20.72,3.51,35.69,7.38,40.73"/>
            <path class="cls-4" d="M139.77,299.22c.54-6.48-20.63-26.58-44.31-47.81-.71.9-1.41,1.78-2.12,2.69-3.9,4.96-7.47,9.92-10.74,14.87,34.07,26.14,56.25,41.32,57.17,30.26"/>
            <path class="cls-4" d="M291.91,233.54c5.99-5.8,4.45-22.44,1.55-38.96-30.91,3.7-39.74-16.08-39.74-30.31,0-16.22,29.93-45.41,40.08-91.3,10.15-45.89-23.97-62.7-23.97-62.7-20.88-8.23-40.64,56.09-59.88,90.04-10.1,17.81-26.56,40.05-47.86,67.24,27.57,23.78,56.31,49.66,72.55,63.45,35.54,30.18,45.28,14.16,57.28,2.53"/>
            <path class="cls-4" d="M62.75,307.08c-2.22,5.7-4.1,11.3-5.65,16.76,15.53,11.38,30.87,21.8,40.63,22.92,22.92,2.64,4.22-11.33-34.98-39.68"/>
            <path class="cls-4" d="M523.63,270.53c-64.68,24.81-114.61,34.26-115.09,23.4-.47-10.86,134.81-48.21,169.97-69.99,35.16-21.78,33.84-37.29,25.38-51.18-8.46-13.89-72.46,20.13-94.15,25.35-21.68,5.22-126.34,53.89-123.68,31.59,2.66-22.29,91.42-46.18,120.21-59.83,28.79-13.65,53.8-30.78,54.62-44.54.82-13.75-1.61-19.32-19.8-21.21-15.94-1.66-135.15,49.92-200.46,75.06,2.63,26.92,12.12,77.06,37.96,133.69,30.02,65.8,17.23,95.96,4.96,125.96,16.75-6.32,32.84-12.31,47.86-17.39,81.8-27.63,130.21-48.78,130.21-48.78,26.98-13.72,18.84-38.08,12.18-42.42-6.66-4.34-15.29,3.81-36.34,8.42-21.04,4.6-122.7,39.83-121.21,24.13,1.49-15.69,130.76-42.33,164.21-62.76,33.46-20.43,28.52-38.57,26.77-47.57-1.75-9-18.93-6.75-83.61,18.06"/>
            <path class="cls-4" d="M3.51,295.12c-7.61,15.05-3.74,25.27,20.63,49.35,4.6,4.54,13.96,12.26,26.33,21.91.28-12.41,2.16-26.88,6.63-42.54-24.24-17.77-48.95-37.9-53.58-28.72"/>
            <path class="cls-4" d="M237.84,500.41c31.36,18.8,62.82,11.3,62.82,11.3,0,0,67.35-32.86,80.21-65.34.91-2.3,1.84-4.58,2.77-6.86-51.61,19.47-109.51,42.04-162.01,50.44,6.9,4.61,12.46,8.21,16.21,10.45"/>
            <path class="cls-4" d="M52.17,245.37C1.39,205.89,5,220.52,2.41,228.88c-2.59,8.37,2.63,36.43,49.22,70.16,3.86,2.8,7.57,5.48,11.12,8.04,4.81-12.34,11.29-25.18,19.85-38.12-9.32-7.15-19.52-15.12-30.43-23.59"/>
            <path class="cls-4" d="M91.75,115.43c-11.96,2.64-12.12,30.31.07,50.64,4.92,8.21,23.16,22.72,41.57,37.66,10.32-12.92,19.92-24.97,28.69-36.17-32.75-28.25-63.84-53.55-70.33-52.12"/>
            <path class="cls-4" d="M34.04,153.75c-16.77,2.51-8.23,22.42-.68,38.51,3.74,7.97,34.95,34.43,62.7,59.33,8.15-10.33,16.01-20.22,23.55-29.68-35.51-30-75.49-69.66-85.57-68.15"/>
            <path class="cls-4" d="M340.72,179.86c-.66-6.74-.89-12.03-.83-15.59.27-17.8,2.89-62.55-18.05-57.12-20.94,5.44-33.91,38.77-35.03,49.17-.56,5.21,3.73,21.67,6.65,38.26,4.32-.52,9.06-1.49,14.28-3,7.5-2.18,19.01-6.35,32.98-11.72"/>
          </g>
        </g>
      </g>
    </g>
  </g>
</svg>