<?xml version="1.0" encoding="UTF-8"?>
<svg id="Layer_2" xmlns="http://www.w3.org/2000/svg" xmlns:xlink="http://www.w3.org/1999/xlink" viewBox="0 0 623.13 518.83">
  <defs>
    <style>
      .cls-1 {
        fill: none;
      }

      .cls-2 {
        clip-path: url(#clippath-1);
      }

      .cls-3 {
        opacity: .3;
      }

      .cls-4 {
        fill: #76c9dd;
      }

      .cls-5 {
        clip-path: url(#clippath-2);
      }

      .cls-6 {
        clip-path: url(#clippath);
      }
    </style>
    <clipPath id="clippath">
      <rect class="cls-1" x="6" y="5.3" width="611.12" height="513.18"/>
    </clipPath>
    <clipPath id="clippath-1">
      <rect class="cls-1" x="6" y="5.3" width="611.12" height="513.18"/>
    </clipPath>
    <clipPath id="clippath-2">
      <rect class="cls-1" width="623.13" height="518.83"/>
    </clipPath>
  </defs>
  <g id="Layer_1-2">
    <g class="cls-6">
      <g class="cls-2">
        <g class="cls-3">
          <g class="cls-5">
            <g>
              <path class="cls-4" d="M179.73,259.16c14.41-5.06-13.16-28.07-40.35-50.13-4.65,5.82-9.44,11.82-14.37,18,23.52,19.87,45.09,35.51,54.72,32.13"/>
              <path class="cls-4" d="M145.77,304.52c.54-6.48-20.63-26.58-44.31-47.81-.71.9-1.41,1.78-2.12,2.69-3.9,4.96-7.47,9.92-10.74,14.87,34.07,26.14,56.25,41.32,57.17,30.26"/>
              <path class="cls-4" d="M68.75,312.38c-2.22,5.7-4.1,11.3-5.65,16.76,15.53,11.38,30.87,21.8,40.63,22.92,22.92,2.64,4.22-11.33-34.98-39.68"/>
              <path class="cls-4" d="M9.51,300.42c-7.61,15.05-3.74,25.27,20.63,49.35,4.6,4.54,13.96,12.26,26.33,21.91.28-12.41,2.16-26.88,6.63-42.54-24.24-17.77-48.95-37.9-53.58-28.72"/>
              <path class="cls-4" d="M243.84,505.71c31.36,18.8,62.82,11.3,62.82,11.3,0,0,67.35-32.86,80.21-65.34.91-2.3,1.84-4.58,2.77-6.86-51.61,19.47-109.51,42.04-162.01,50.44,6.9,4.61,12.46,8.21,16.21,10.45"/>
              <path class="cls-4" d="M58.17,250.67c-50.78-39.48-47.17-24.85-49.76-16.49-2.59,8.37,2.63,36.43,49.22,70.16,3.86,2.8,7.57,5.48,11.12,8.04,4.81-12.34,11.29-25.18,19.85-38.12-9.32-7.15-19.52-15.12-30.43-23.59"/>
              <path class="cls-4" d="M97.75,120.73c-11.96,2.64-12.12,30.31.07,50.64,4.92,8.21,23.16,22.72,41.57,37.66,10.32-12.92,19.92-24.97,28.69-36.17-32.75-28.25-63.84-53.55-70.33-52.12"/>
              <path class="cls-4" d="M40.04,159.05c-16.77,2.51-8.23,22.42-.68,38.51,3.74,7.97,34.95,34.43,62.7,59.33,8.15-10.33,16.01-20.22,23.55-29.68-35.51-30-75.49-69.66-85.57-68.15"/>
              <path class="cls-4" d="M346.72,185.16c-.66-6.74-.89-12.03-.83-15.59.27-17.8,2.89-62.55-18.05-57.12-20.94,5.44-33.91,38.77-35.03,49.17-.56,5.21,3.73,21.67,6.65,38.26,4.32-.52,9.06-1.49,14.28-3,7.5-2.18,19.01-6.35,32.98-11.72"/>
            </g>
          </g>
        </g>
      </g>
    </g>
  </g>
</svg>