<?xml version="1.0" encoding="UTF-8"?>
<svg id="Layer_2" data-name="Layer 2" xmlns="http://www.w3.org/2000/svg" viewBox="0 0 35.74 31.71">
  <defs>
    <style>
      .cls-1 {
        fill: #f15833;
        stroke-width: 0px;
      }
    </style>
  </defs>
  <g id="Layer_1-2" data-name="Layer 1">
    <polygon class="cls-1" points="2.3 0 1.53 .94 .77 1.89 0 2.83 1.59 4.12 .83 5.07 .06 6.01 1.66 7.3 .89 8.25 .12 9.19 1.72 10.48 .95 11.43 .19 12.37 1.78 13.66 1.02 14.6 2.61 15.89 4.2 17.18 4.97 16.24 5.73 15.29 4.14 14 4.9 13.06 5.67 12.11 4.07 10.83 4.84 9.88 3.25 8.59 4.01 7.65 4.78 6.7 3.18 5.41 3.95 4.47 4.72 3.52 3.12 2.23 3.89 1.29 2.3 0"/>
    <polygon class="cls-1" points="12.93 22.69 13.69 21.74 14.46 20.8 15.22 19.85 15.99 18.91 16.75 17.96 17.52 17.02 18.28 16.07 19.05 15.13 19.81 14.19 20.58 13.24 21.34 12.3 22.11 11.35 20.51 10.06 19.75 11.01 18.98 11.95 18.22 12.9 17.45 13.84 16.69 14.79 15.93 15.73 15.16 16.67 14.4 17.62 13.63 18.56 12.87 19.51 12.1 20.45 11.34 21.4 10.57 22.34 9.81 23.29 11.4 24.58 12.16 23.63 12.93 22.69"/>
    <polygon class="cls-1" points="31.02 26.39 30.26 27.34 28.66 26.05 27.9 26.99 27.14 27.93 25.54 26.65 24.78 27.59 23.19 26.3 22.42 27.24 21.66 28.19 20.06 26.9 19.3 27.84 18.53 28.79 17.77 29.73 19.36 31.02 20.13 30.08 21.72 31.37 22.48 30.42 24.08 31.71 24.84 30.77 25.61 29.82 27.2 31.11 27.96 30.17 28.73 29.22 30.32 30.51 31.08 29.57 31.85 28.63 33.44 29.91 34.21 28.97 34.97 28.03 35.74 27.08 34.15 25.79 33.38 26.74 31.79 25.45 31.02 26.39"/>
  </g>
</svg>