<?xml version="1.0" encoding="UTF-8"?>
<svg id="Layer_2" data-name="Layer 2" xmlns="http://www.w3.org/2000/svg" viewBox="0 0 38.76 28.37">
  <defs>
    <style>
      .cls-1 {
        fill: #044f9d;
        stroke-width: 0px;
      }
    </style>
  </defs>
  <g id="Layer_1-2" data-name="Layer 1">
    <polygon class="cls-1" points="1.88 0 1.25 1.04 .63 2.08 0 3.13 1.76 4.18 1.13 5.22 .5 6.26 2.26 7.32 1.63 8.36 1.01 9.4 2.76 10.46 2.14 11.5 1.51 12.54 3.27 13.6 2.64 14.64 4.4 15.69 6.16 16.75 6.78 15.71 7.41 14.67 5.65 13.61 6.28 12.57 6.9 11.53 5.15 10.47 5.77 9.43 4.02 8.38 4.64 7.33 5.27 6.29 3.51 5.24 4.14 4.19 4.76 3.15 3.01 2.1 3.63 1.06 1.88 0"/>
    <polygon class="cls-1" points="15.57 20.99 16.19 19.94 16.82 18.9 17.44 17.86 18.07 16.82 18.7 15.78 19.32 14.73 19.95 13.69 20.57 12.65 21.2 11.61 21.83 10.57 22.45 9.53 23.08 8.48 21.32 7.43 20.69 8.47 20.07 9.51 19.44 10.55 18.82 11.6 18.19 12.64 17.56 13.68 16.94 14.72 16.31 15.76 15.69 16.8 15.06 17.85 14.43 18.89 13.81 19.93 13.18 20.97 12.56 22.01 14.31 23.07 14.94 22.03 15.57 20.99"/>
    <polygon class="cls-1" points="34 22.14 33.37 23.18 31.62 22.12 30.99 23.16 30.36 24.21 28.61 23.15 27.98 24.19 26.23 23.14 25.6 24.18 24.97 25.22 23.22 24.17 22.59 25.21 21.96 26.25 21.34 27.29 23.09 28.35 23.72 27.3 25.48 28.36 26.1 27.32 27.86 28.37 28.49 27.33 29.11 26.29 30.87 27.35 31.49 26.3 32.12 25.26 33.88 26.32 34.5 25.28 35.13 24.23 36.89 25.29 37.51 24.25 38.14 23.21 38.76 22.16 37.01 21.11 36.38 22.15 34.62 21.09 34 22.14"/>
  </g>
</svg>