<?xml version="1.0" encoding="UTF-8"?>
<svg id="Layer_2" data-name="Layer 2" xmlns="http://www.w3.org/2000/svg" viewBox="0 0 53.96 66.73">
  <defs>
    <style>
      .cls-1 {
        fill: #f15833;
        stroke-width: 0px;
      }
    </style>
  </defs>
  <g id="Layer_1-2" data-name="Layer 1">
    <polygon class="cls-1" points="11.52 12.52 11.52 13.61 11.52 14.7 11.52 15.78 10.63 15.78 10.63 16.87 10.63 17.96 10.63 19.05 10.63 20.14 9.74 20.14 9.74 21.23 9.74 22.32 8.86 22.32 7.97 22.32 7.97 23.41 7.09 23.41 6.2 23.41 5.32 23.41 4.43 23.41 4.43 24.49 3.54 24.49 2.66 24.49 1.77 24.49 .89 24.49 0 24.49 0 25.58 .89 25.58 1.77 25.58 2.66 25.58 3.54 25.58 4.43 25.58 5.32 25.58 5.32 26.67 6.2 26.67 7.09 26.67 7.97 26.67 8.86 26.67 8.86 27.76 9.74 27.76 9.74 28.85 10.63 28.85 10.63 29.94 10.63 31.03 10.63 32.12 10.63 33.2 11.52 33.2 11.52 34.29 11.52 35.38 11.52 36.47 11.52 37.56 12.4 37.56 12.4 36.47 12.4 35.38 12.4 34.29 12.4 33.2 13.29 33.2 13.29 32.12 13.29 31.03 13.29 29.94 13.29 28.85 14.17 28.85 14.17 27.76 15.06 27.76 15.06 26.67 15.95 26.67 16.83 26.67 17.72 26.67 18.6 26.67 18.6 25.58 19.49 25.58 20.37 25.58 21.26 25.58 22.15 25.58 23.03 25.58 23.92 25.58 23.92 24.49 23.03 24.49 22.15 24.49 21.26 24.49 20.37 24.49 19.49 24.49 19.49 23.41 18.6 23.41 17.72 23.41 16.83 23.41 16.83 22.32 15.95 22.32 15.06 22.32 15.06 21.23 14.17 21.23 14.17 20.14 13.29 20.14 13.29 19.05 13.29 17.96 13.29 16.87 12.4 16.87 12.4 15.78 12.4 14.7 12.4 13.61 12.4 12.52 11.52 12.52"/>
    <polygon class="cls-1" points="27.46 0 27.46 1.09 27.46 1.63 27.46 2.18 27.46 2.72 27.46 3.81 27.46 4.9 27.46 5.99 26.57 5.99 26.57 7.08 25.69 7.08 24.8 7.08 23.92 7.08 23.92 8.17 23.03 8.17 22.15 8.17 21.26 8.17 20.37 8.17 20.37 9.25 21.26 9.25 22.15 9.25 23.03 9.25 23.92 9.25 24.8 9.25 25.69 9.25 25.69 10.34 26.57 10.34 27.46 10.34 27.46 11.43 27.46 12.52 27.46 13.61 27.46 14.7 27.46 15.78 28.35 15.78 28.35 14.7 28.35 13.61 29.23 13.61 29.23 12.52 29.23 11.43 29.23 10.34 30.12 10.34 31 10.34 31 9.25 31.89 9.25 32.78 9.25 33.66 9.25 34.55 9.25 35.43 9.25 36.32 9.25 36.32 8.17 35.43 8.17 34.55 8.17 33.66 8.17 32.78 8.17 32.78 7.08 31.89 7.08 31 7.08 30.12 7.08 30.12 5.99 29.23 5.99 29.23 4.9 29.23 3.81 29.23 2.72 28.35 2.72 28.35 2.18 28.35 1.63 28.35 1.09 28.35 0 27.46 0"/>
  </g>
</svg>