<?xml version="1.0" encoding="UTF-8"?>
<svg id="Layer_2" data-name="Layer 2" xmlns="http://www.w3.org/2000/svg" xmlns:xlink="http://www.w3.org/1999/xlink" viewBox="0 0 45.98 39.68">
  <defs>
    <style>
      .cls-1 {
        fill: #f15833;
      }

      .cls-1, .cls-2 {
        stroke-width: 0px;
      }

      .cls-2, .cls-3 {
        fill: none;
      }

      .cls-4 {
        clip-path: url(#clippath);
      }

      .cls-3 {
        stroke: #f15833;
        stroke-miterlimit: 10;
        stroke-width: .51px;
      }
    </style>
    <clipPath id="clippath">
      <rect class="cls-2" y="0" width="45.98" height="39.68"/>
    </clipPath>
  </defs>
  <g id="Layer_1-2" data-name="Layer 1">
    <g class="cls-4">
      <polygon class="cls-3" points="15.62 38.76 15.62 38.1 15.62 37.43 15.62 36.76 15.62 36.09 15.62 35.43 16.38 35.43 16.38 34.76 16.38 34.09 16.38 33.43 16.38 32.76 16.38 32.09 16.38 31.43 16.38 30.76 16.38 30.09 17.15 30.09 17.15 29.43 17.15 28.76 17.92 28.76 17.92 28.09 17.92 27.43 18.69 27.43 19.46 27.43 19.46 26.76 20.22 26.76 20.99 26.76 20.99 26.09 21.76 26.09 22.53 26.09 23.3 26.09 24.06 26.09 24.06 25.42 24.83 25.42 25.6 25.42 26.37 25.42 27.14 25.42 27.9 25.42 28.67 25.42 29.44 25.42 29.44 24.76 29.44 24.09 28.67 24.09 27.9 24.09 27.14 24.09 26.37 24.09 25.6 24.09 25.6 23.42 24.83 23.42 24.06 23.42 23.3 23.42 22.53 23.42 21.76 23.42 21.76 22.76 20.99 22.76 20.22 22.76 19.46 22.76 19.46 22.09 18.69 22.09 18.69 21.42 17.92 21.42 17.92 20.76 17.15 20.76 17.15 20.09 17.15 19.42 17.15 18.76 16.38 18.76 16.38 18.09 16.38 17.42 16.38 16.76 16.38 16.09 16.38 15.42 16.38 14.75 16.38 14.09 16.38 13.42 15.62 13.42 15.62 12.75 15.62 12.09 15.62 11.42 15.62 10.75 15.62 10.09 14.85 10.09 14.08 10.09 14.08 10.75 14.08 11.42 14.08 12.09 14.08 12.75 14.08 13.42 14.08 14.09 14.08 14.75 14.08 15.42 14.08 16.09 14.08 16.76 14.08 17.42 13.31 17.42 13.31 18.09 13.31 18.76 13.31 19.42 13.31 20.09 12.54 20.09 12.54 20.76 12.54 21.42 11.78 21.42 11.78 22.09 11.01 22.09 10.24 22.09 10.24 22.76 9.47 22.76 8.7 22.76 7.94 22.76 7.94 23.42 7.17 23.42 6.4 23.42 5.63 23.42 4.86 23.42 4.1 23.42 4.1 24.09 3.33 24.09 2.56 24.09 1.79 24.09 1.02 24.09 .26 24.09 .26 24.76 .26 25.42 1.02 25.42 1.79 25.42 2.56 25.42 3.33 25.42 4.1 25.42 4.86 25.42 5.63 25.42 5.63 26.09 6.4 26.09 7.17 26.09 7.94 26.09 8.7 26.09 8.7 26.76 9.47 26.76 10.24 26.76 10.24 27.43 11.01 27.43 11.78 27.43 11.78 28.09 12.54 28.09 12.54 28.76 12.54 29.43 12.54 30.09 13.31 30.09 13.31 30.76 13.31 31.43 13.31 32.09 14.08 32.09 14.08 32.76 14.08 33.43 14.08 34.09 14.08 34.76 14.08 35.43 14.08 36.09 14.08 36.76 14.08 37.43 14.08 38.1 14.08 38.76 14.08 39.43 14.85 39.43 15.62 39.43 15.62 38.76"/>
    </g>
    <polygon class="cls-1" points="28.35 0 28.35 .65 28.35 1.3 28.35 1.96 28.35 2.61 28.35 3.26 28.35 3.91 27.6 3.91 27.6 4.56 27.6 5.21 27.6 5.86 27.6 6.52 26.85 6.52 26.85 7.17 26.1 7.17 26.1 7.82 25.35 7.82 24.6 7.82 23.85 7.82 23.1 7.82 23.1 8.47 22.35 8.47 21.6 8.47 20.85 8.47 20.1 8.47 20.1 9.12 20.85 9.12 21.6 9.12 22.35 9.12 23.1 9.12 23.1 9.77 23.85 9.77 24.6 9.77 25.35 9.77 26.1 9.77 26.1 10.43 26.85 10.43 26.85 11.08 27.6 11.08 27.6 11.73 27.6 12.38 27.6 13.03 27.6 13.68 28.35 13.68 28.35 14.33 28.35 14.99 28.35 15.64 28.35 16.29 28.35 16.94 28.35 17.59 29.1 17.59 29.1 16.94 29.1 16.29 29.1 15.64 29.1 14.99 29.1 14.33 29.85 14.33 29.85 13.68 29.85 13.03 29.85 12.38 30.6 12.38 30.6 11.73 30.6 11.08 31.35 11.08 31.35 10.43 32.1 10.43 32.1 9.77 32.85 9.77 33.6 9.77 34.35 9.77 34.35 9.12 35.1 9.12 35.85 9.12 36.6 9.12 37.35 9.12 37.35 8.47 36.6 8.47 35.85 8.47 35.1 8.47 35.1 7.82 34.35 7.82 33.6 7.82 32.85 7.82 32.1 7.82 32.1 7.17 31.35 7.17 30.6 7.17 30.6 6.52 30.6 5.86 29.85 5.86 29.85 5.21 29.85 4.56 29.85 3.91 29.85 3.26 29.1 3.26 29.1 2.61 29.1 1.96 29.1 1.3 29.1 .65 29.1 0 28.35 0"/>
    <polygon class="cls-1" points="39.61 14.99 39.61 15.64 39.61 16.29 39.61 16.94 39.61 17.59 39.61 18.24 39.61 18.89 38.85 18.89 38.85 19.55 38.85 20.2 38.11 20.2 37.35 20.2 36.6 20.2 35.85 20.2 35.1 20.2 35.1 20.85 35.85 20.85 36.6 20.85 36.6 21.5 37.35 21.5 38.11 21.5 38.85 21.5 38.85 22.15 38.85 22.8 39.61 22.8 39.61 23.46 39.61 24.11 39.61 24.76 39.61 25.41 39.61 26.06 39.61 26.71 40.36 26.71 40.36 26.06 40.36 25.41 40.36 24.76 40.36 24.11 41.11 24.11 41.11 23.46 41.11 22.8 41.11 22.15 41.86 22.15 41.86 21.5 42.61 21.5 43.36 21.5 44.11 21.5 44.11 20.85 44.48 20.85 44.86 20.85 45.23 20.85 45.98 20.85 45.98 20.2 45.23 20.2 44.86 20.2 44.48 20.2 44.11 20.2 43.36 20.2 42.61 20.2 41.86 20.2 41.86 19.55 41.11 19.55 41.11 18.89 41.11 18.24 41.11 17.59 40.36 17.59 40.36 16.94 40.36 16.29 40.36 15.64 40.36 14.99 39.61 14.99"/>
  </g>
</svg>